<?xml version="1.0" standalone="no"?>
<!DOCTYPE svg PUBLIC "-//W3C//DTD SVG 20010904//EN"
 "http://www.w3.org/TR/2001/REC-SVG-20010904/DTD/svg10.dtd">
<svg version="1.0" xmlns="http://www.w3.org/2000/svg"
 width="800.000000pt" height="800.000000pt" viewBox="0 0 800.000000 800.000000"
 preserveAspectRatio="xMidYMid meet">
<metadata>
Created by potrace 1.11, written by Peter Selinger 2001-2013
</metadata>
<g transform="translate(0.000000,800.000000) scale(0.100000,-0.100000)"
fill="#000000" stroke="none">
<path d="M2901 5084 c0 -70 -2 -128 -4 -130 -2 -3 -61 -5 -130 -5 l-127 -1 0
-128 c0 -94 -3 -129 -12 -132 -7 -2 -64 -3 -125 -2 l-113 1 0 -129 c0 -95 -3
-128 -12 -129 -7 0 -66 -1 -130 -2 l-118 0 0 -184 0 -183 33 -1 c17 -1 38 -1
45 0 8 1 12 -13 12 -44 0 -29 4 -45 13 -46 6 0 44 -1 82 -2 l70 -1 5 -85 5
-86 43 1 42 1 0 -44 c0 -34 4 -43 18 -44 9 -1 42 -3 72 -4 30 -1 61 -3 68 -4
8 -1 12 -25 12 -84 l0 -83 45 2 c43 3 45 1 46 -24 1 -15 0 -33 -1 -41 -3 -22
15 -27 95 -26 84 1 78 9 76 -90 -1 -75 3 -82 49 -80 43 2 47 -3 44 -57 l-2
-38 184 0 184 0 0 185 0 185 -32 1 c-18 1 -38 1 -45 0 -7 -1 -13 16 -15 46
l-3 48 -80 0 -80 0 0 83 1 82 -48 0 -48 0 0 45 0 45 -85 0 -85 0 0 88 0 88
-45 -2 -45 -2 0 47 0 48 -85 -2 -85 -1 0 33 0 33 130 0 130 0 0 130 0 129 132
3 132 3 0 128 0 127 128 0 128 0 0 185 0 185 -45 0 -45 0 0 45 0 45 -189 0
-189 0 -1 -126z m321 54 c2 -7 3 -65 3 -128 l-1 -115 -126 -3 c-109 -2 -126
-5 -130 -20 -2 -9 -3 -68 -3 -129 l1 -113 -132 0 c-97 0 -133 3 -136 13 -2 6
-4 64 -3 127 l1 115 131 3 132 3 0 102 c0 56 0 114 0 130 l1 27 129 0 c94 0
130 -3 133 -12z m-520 -540 c2 -18 2 -77 0 -130 l-3 -98 -130 0 -129 0 0 -130
0 -130 130 0 c97 0 130 -3 131 -12 0 -7 0 -66 -1 -130 l-1 -118 134 0 133 0
-1 -117 c0 -65 1 -124 3 -130 3 -10 38 -13 131 -13 l126 0 0 -127 -1 -128
-129 -3 -130 -3 2 131 2 130 -133 0 -133 0 -1 118 c0 64 -1 123 -1 130 -1 9
-34 12 -130 12 l-129 0 0 108 c0 59 0 117 -1 130 -1 22 -3 22 -129 22 l-127 0
1 123 c1 67 2 125 3 130 0 4 57 7 126 7 l125 0 1 28 c1 15 1 73 1 130 l1 102
128 0 128 0 3 -32z"/>
<path d="M4650 5025 l0 -185 45 0 45 0 0 -47 0 -48 77 0 78 0 5 -80 c3 -54 9
-80 18 -81 6 -1 26 -2 42 -3 29 -1 30 -3 30 -46 0 -44 1 -45 33 -43 17 0 56 0
85 -1 l52 -1 0 -85 0 -85 45 0 45 0 0 -45 0 -45 89 0 c94 0 103 -5 93 -52 -3
-16 -18 -18 -133 -18 l-129 0 0 -129 0 -129 -117 2 c-65 1 -124 0 -130 -2 -10
-3 -13 -38 -13 -131 l0 -127 -127 0 -128 0 -3 -185 -2 -185 42 0 43 1 3 -47 3
-48 184 0 184 0 3 133 3 132 115 1 c63 1 120 2 127 3 9 1 13 37 15 129 l3 127
125 0 125 0 3 131 3 131 127 0 127 -1 3 182 c2 142 0 182 -10 183 -7 1 -27 1
-45 1 -31 0 -32 1 -35 46 l-3 47 -70 1 c-38 1 -76 2 -82 3 -9 1 -13 25 -13 84
l0 82 -42 0 -43 0 -5 45 -5 45 -70 2 c-38 0 -76 2 -82 2 -9 1 -13 25 -13 84
l0 84 -42 -1 -43 -1 -5 45 -5 45 -82 3 -83 3 0 84 c0 47 -3 84 -7 84 -5 -1
-25 -1 -45 0 l-38 1 0 45 0 45 -185 0 -185 0 0 -185z m311 113 c1 -7 2 -60 4
-118 1 -58 3 -109 4 -115 0 -6 52 -11 123 -13 67 -2 125 -7 128 -12 3 -5 5
-61 4 -124 0 -64 0 -116 0 -117 1 0 57 -3 126 -6 69 -2 127 -9 130 -13 3 -5 5
-63 5 -130 l-1 -120 128 0 128 0 0 -130 0 -130 -125 0 c-93 0 -125 3 -126 13
-1 6 -2 64 -3 127 l-1 115 -130 3 c-71 1 -132 7 -135 12 -4 6 -6 64 -5 130 l2
120 -31 1 c-70 2 -212 7 -222 8 -6 1 -10 44 -10 124 l1 122 -126 3 -126 3 0
129 0 130 129 0 c95 0 128 -3 129 -12z m524 -1158 l0 -125 -130 0 -129 0 -1
115 c-1 63 1 121 3 128 3 9 35 12 131 10 l126 -3 0 -125z m-263 -142 c3 -11 3
-175 -1 -230 -1 -15 -16 -18 -128 -20 l-128 -3 0 -125 0 -125 -131 -3 -130 -3
0 131 -1 130 132 0 131 0 -1 118 c-1 64 1 123 3 130 3 9 38 12 127 12 89 0
124 -3 127 -12z"/>
<path d="M4030 4690 c0 -201 -3 -260 -12 -261 -7 0 -66 -1 -130 -2 l-118 0 0
-262 0 -261 -125 -1 c-69 0 -128 -2 -130 -5 -3 -3 -6 -141 -6 -308 -1 -226 2
-305 11 -310 7 -4 28 -7 46 -5 l34 2 0 -49 0 -48 185 0 184 0 0 63 c0 34 0
152 0 262 l1 201 128 -1 127 0 3 263 2 262 118 -1 c64 0 123 0 130 0 9 1 12
71 12 315 l0 313 -45 -2 -45 -2 0 49 0 48 -185 0 -185 0 0 -260z m312 188 c2
-7 4 -123 3 -258 l0 -245 -127 -3 c-71 -1 -128 1 -129 5 0 4 -2 122 -3 261
l-2 252 127 0 c93 0 128 -3 131 -12z m-261 -525 c0 -30 1 -425 0 -466 l-1 -38
-127 3 -128 3 -1 245 c0 135 2 251 4 258 3 9 38 12 128 12 111 0 124 -2 125
-17z m-260 -590 c0 -49 1 -164 2 -258 l1 -170 -130 -3 -130 -3 -1 261 0 260
128 0 129 0 1 -87z"/>
</g>
</svg>
